<svg xmlns="http://www.w3.org/2000/svg" xmlns:xlink="http://www.w3.org/1999/xlink" preserveAspectRatio="xMidYMid" width="37.219" height="37.22" viewBox="0 0 37.219 37.22">
  <defs>
    <style>
      .cls-1, .cls-2 {
        fill: #fff;
        fill-rule: evenodd;
      }

      .cls-1 {
        opacity: 0.5;
      }

      .cls-2 {
        opacity: 0.8;
      }
    </style>
  </defs>
  <g>
    <path d="M18.613,-0.013 C28.896,-0.013 37.232,8.323 37.232,18.607 C37.232,28.890 28.896,37.226 18.613,37.226 C8.329,37.226 -0.007,28.890 -0.007,18.607 C-0.007,8.323 8.329,-0.013 18.613,-0.013 ZM18.552,2.978 C27.218,2.978 34.244,10.003 34.244,18.669 C34.244,27.336 27.218,34.361 18.552,34.361 C9.886,34.361 2.861,27.336 2.861,18.669 C2.861,10.003 9.886,2.978 18.552,2.978 Z" class="cls-1"/>
    <path d="M18.552,34.361 C9.886,34.361 2.861,27.336 2.861,18.669 C2.861,10.003 9.886,2.978 18.552,2.978 C27.218,2.978 34.244,10.003 34.244,18.669 C34.244,27.336 27.218,34.361 18.552,34.361 ZM26.569,12.532 C26.569,11.569 25.787,10.787 24.824,10.787 L12.496,10.787 C11.533,10.787 10.751,11.569 10.751,12.532 L10.751,24.843 C10.751,25.807 11.532,26.588 12.496,26.588 L24.824,26.588 C25.787,26.588 26.569,25.807 26.569,24.843 L26.569,12.532 ZM24.247,15.653 L22.383,15.653 C22.045,15.653 21.771,15.379 21.771,15.041 L21.771,13.177 C21.771,12.839 22.045,12.566 22.383,12.566 L24.247,12.566 C24.585,12.566 24.859,12.839 24.859,13.177 L24.859,15.041 C24.859,15.379 24.585,15.653 24.247,15.653 ZM18.685,21.559 C17.117,21.559 15.847,20.288 15.847,18.720 C15.847,17.152 17.117,15.882 18.685,15.882 C20.253,15.882 21.751,17.026 21.751,18.720 C21.751,20.414 20.253,21.559 18.685,21.559 ZM18.684,23.646 C21.402,23.646 23.606,21.443 23.606,18.725 C23.606,18.298 23.551,17.882 23.449,17.487 C24.332,17.489 24.828,17.487 24.828,17.487 L24.828,24.272 C24.828,24.610 24.554,24.884 24.217,24.884 L13.152,24.884 C12.814,24.884 12.540,24.610 12.540,24.272 L12.540,17.487 C12.540,17.487 12.820,17.487 13.920,17.487 C13.817,17.883 13.763,18.298 13.763,18.725 C13.763,21.443 15.966,23.646 18.684,23.646 Z" class="cls-2"/>
  </g>
</svg>
