<svg xmlns="http://www.w3.org/2000/svg" xmlns:xlink="http://www.w3.org/1999/xlink" preserveAspectRatio="xMidYMid" width="37.219" height="37.22" viewBox="0 0 37.219 37.22">
  <defs>
    <style>
      .cls-1, .cls-2 {
        fill: #fff;
        fill-rule: evenodd;
      }

      .cls-1 {
        opacity: 0.5;
      }

      .cls-2 {
        opacity: 0.8;
      }
    </style>
  </defs>
  <g>
    <path d="M18.613,-0.013 C28.896,-0.013 37.232,8.323 37.232,18.607 C37.232,28.890 28.896,37.226 18.613,37.226 C8.329,37.226 -0.007,28.890 -0.007,18.607 C-0.007,8.323 8.329,-0.013 18.613,-0.013 ZM18.615,2.915 C27.281,2.915 34.306,9.941 34.306,18.607 C34.306,27.273 27.281,34.299 18.615,34.299 C9.948,34.299 2.923,27.273 2.923,18.607 C2.923,9.941 9.948,2.915 18.615,2.915 Z" class="cls-1"/>
    <path d="M18.615,34.299 C9.948,34.299 2.923,27.273 2.923,18.607 C2.923,9.941 9.948,2.915 18.615,2.915 C27.281,2.915 34.306,9.941 34.306,18.607 C34.306,27.273 27.281,34.299 18.615,34.299 ZM27.262,12.284 C26.558,12.702 25.778,13.004 24.949,13.168 C24.284,12.460 23.338,12.018 22.290,12.018 C20.279,12.018 18.648,13.649 18.648,15.660 C18.648,15.945 18.680,16.223 18.742,16.490 C15.715,16.338 13.031,14.888 11.235,12.684 C10.921,13.222 10.742,13.848 10.742,14.516 C10.742,15.779 11.385,16.894 12.362,17.547 C11.765,17.528 11.203,17.364 10.712,17.092 C10.712,17.107 10.712,17.122 10.712,17.137 C10.712,18.902 11.967,20.374 13.634,20.709 C13.328,20.792 13.006,20.836 12.674,20.836 C12.439,20.836 12.211,20.814 11.989,20.771 C12.452,22.218 13.797,23.271 15.391,23.300 C14.145,24.278 12.574,24.860 10.868,24.860 C10.574,24.860 10.284,24.843 9.999,24.809 C11.611,25.842 13.525,26.445 15.582,26.445 C22.282,26.445 25.945,20.895 25.945,16.082 C25.945,15.924 25.942,15.767 25.935,15.611 C26.646,15.097 27.264,14.456 27.752,13.726 C27.099,14.015 26.397,14.211 25.660,14.299 C26.412,13.848 26.990,13.134 27.262,12.284 Z" class="cls-2"/>
  </g>
</svg>
