<svg xmlns="http://www.w3.org/2000/svg" xmlns:xlink="http://www.w3.org/1999/xlink" preserveAspectRatio="xMidYMid" width="37.218" height="37.22" viewBox="0 0 37.218 37.22">
  <defs>
    <style>
      .cls-1, .cls-2 {
        fill: #fff;
        fill-rule: evenodd;
      }

      .cls-1 {
        opacity: 0.5;
      }

      .cls-2 {
        opacity: 0.8;
      }
    </style>
  </defs>
  <g>
    <path d="M18.612,-0.013 C28.896,-0.013 37.232,8.323 37.232,18.607 C37.232,28.890 28.896,37.226 18.612,37.226 C8.329,37.226 -0.007,28.890 -0.007,18.607 C-0.007,8.323 8.329,-0.013 18.612,-0.013 ZM18.552,2.978 C27.218,2.978 34.243,10.003 34.243,18.669 C34.243,27.336 27.218,34.361 18.552,34.361 C9.885,34.361 2.860,27.336 2.860,18.669 C2.860,10.003 9.885,2.978 18.552,2.978 Z" class="cls-1"/>
    <path d="M18.552,34.361 C9.885,34.361 2.860,27.336 2.860,18.669 C2.860,10.003 9.885,2.978 18.552,2.978 C27.218,2.978 34.243,10.003 34.243,18.669 C34.243,27.336 27.218,34.361 18.552,34.361 ZM23.762,19.027 C23.258,18.481 22.584,18.122 21.746,17.945 L21.746,17.873 C22.329,17.627 22.787,17.247 23.117,16.729 C23.450,16.212 23.616,15.623 23.616,14.959 C23.616,14.385 23.494,13.880 23.254,13.441 C23.014,13.005 22.649,12.652 22.163,12.390 C21.714,12.147 21.231,11.988 20.717,11.914 C20.203,11.835 19.445,11.798 18.448,11.798 L13.644,11.798 L13.644,25.395 L19.086,25.395 C20.031,25.395 20.807,25.310 21.418,25.139 C22.032,24.967 22.594,24.683 23.104,24.282 C23.538,23.945 23.880,23.525 24.136,23.014 C24.392,22.501 24.519,21.907 24.519,21.230 C24.519,20.307 24.267,19.573 23.762,19.027 ZM20.109,22.636 C19.757,22.789 19.408,22.869 19.068,22.882 C18.728,22.895 18.114,22.901 17.226,22.901 L17.042,22.901 L17.042,19.497 L17.672,19.497 C18.279,19.497 18.766,19.500 19.128,19.510 C19.489,19.518 19.775,19.562 19.981,19.644 C20.321,19.765 20.577,19.943 20.748,20.183 C20.920,20.419 21.003,20.747 21.003,21.167 C21.003,21.495 20.932,21.789 20.789,22.047 C20.645,22.306 20.421,22.501 20.109,22.636 ZM19.427,16.960 C19.177,17.075 18.934,17.138 18.700,17.150 C18.466,17.163 18.055,17.169 17.472,17.169 L17.042,17.169 L17.042,14.292 L17.279,14.292 C17.887,14.292 18.345,14.295 18.653,14.304 C18.962,14.314 19.227,14.367 19.451,14.466 C19.692,14.569 19.866,14.738 19.978,14.968 C20.090,15.199 20.147,15.424 20.147,15.645 C20.147,15.940 20.093,16.203 19.990,16.431 C19.888,16.654 19.698,16.832 19.427,16.960 Z" class="cls-2"/>
  </g>
</svg>
